<svg xmlns="http://www.w3.org/2000/svg" viewBox="0 0 104.02 40.85"><path d="M87.89 19.34h-3.67v-7.55h4V3.43h9.38v8.36h6.07v7.55h-6.06v8.81c0 3.2 3.32 3.66 5.15 3.66H104v8.36s-1 .11-2.63.11c-4.58 0-13.5-1.26-13.5-10.87zm-20.6 13.39c3.54 0 6.52-2.63 6.52-7s-3-7.1-6.52-7.1-6.53 2.74-6.53 7.1 3 7 6.53 7m-.12-22.09c9.16 0 16.37 6.07 16.37 15.22s-7.33 15-16.37 15-16.36-6-16.36-15 7.44-15.22 16.36-15.22m-28.72.75h9.73v28.77h-9.73zM17.62 18.2h-4.35V8.35h3.44c4.92 0 6.06 1.84 6.06 4.81-.11 3.2-2.06 5-5.15 5m10.53 7.9a25.49 25.49 0 0 0-1.49-2.51v-.12c3.89-2.06 5.95-6.63 5.95-10.87 0-5.83-2.86-9.95-7.32-11.67C23.57.34 21.63 0 17.51 0H0v7.67h3.43v32.38h9.73v-13.5h4.69l7.21 13.5h10.87z" fill="#ffe0c6"/></svg>